<?xml version="1.0" encoding="UTF-8"?>

<svg width="585" height="102" viewBox="0 0 585 102" fill="none" xmlns="http://www.w3.org/2000/svg">
<g clip-path="url(#clip0_368_24)">
<path d="M1148.53 -107.369H-568.899V209.368H1148.53V-107.369Z"></path>
<path d="M0 26.8418V102H48.3028V88.5343H13.9193V26.8418H0Z" fill="black"></path>
<path d="M112.471 43.1722H112.754L124.632 74.4959H100.592L112.471 43.1722ZM105.117 26.8418L75.1376 102H90.1274L95.7839 87.2928H129.629L135.285 102H150.275L120.296 26.8418H105.117Z" fill="black"></path>
<path d="M221.229 26.8418L201.4 82.5178H201.215L181.294 26.8418H166.376L194.544 102H208.072L236.147 26.8418H221.229Z" fill="black"></path>
<path d="M268.349 26.8418V102H322.018V88.6298H282.977V70.9624H313.784V57.688H282.977V40.1162H321.631V26.8418H268.349Z" fill="black"></path>
<path d="M380.769 77.2625H368.949V101.127H354.783V25.3965H384.615C402.346 25.3965 412.478 35.0191 412.478 51.2814C412.478 63.7908 406.474 72.4512 395.592 75.7229L413.697 101.127H397.562L380.769 77.2625ZM368.949 63.887H384.053C393.434 63.887 397.937 59.7493 397.937 51.3776C397.937 42.9097 393.434 38.9644 384.053 38.9644H368.949V63.887Z" fill="black"></path>
<path d="M498.692 87.7543V101.13H446.72V25.3996H498.317V38.7751H460.885V56.4807H490.718V69.76H460.885V87.5619H498.692V87.7543ZM475.239 17.9902H462.105L472.987 0.765625H488.56L475.239 17.9902Z" fill="black"></path>
<path d="M584.812 87.7585V101.23H532.84V25.5H584.437V38.8755H546.912V56.5811H576.838V69.9566H546.912V87.7585H584.812Z" fill="black"></path>
</g>
<defs>
<clipPath id="clip0_368_24">
<rect width="585" height="102"></rect>
</clipPath>
</defs>
</svg>